<svg width="159" height="159" viewBox="0 0 159 159" fill="none" xmlns="http://www.w3.org/2000/svg">
<rect x="2.30319" y="79.9118" width="109.755" height="109.755" rx="25" transform="rotate(-45 2.30319 79.9118)" fill="#0032FF"/>
<path d="M119.456 79.9118C119.456 102.901 102.901 119.456 79.9118 119.456C56.9227 119.456 40.3676 102.901 40.3676 79.9118C40.3676 56.9227 56.9227 40.3677 79.9118 40.3677C102.901 40.3677 119.456 56.9227 119.456 79.9118Z" stroke="white" stroke-width="3"/>
<path d="M71.7723 60.575C71.3371 61.6255 71.3371 62.9572 71.3371 65.6208V71.2772C71.3371 71.3055 71.3371 71.3196 71.3284 71.3284C71.3196 71.3372 71.3054 71.3372 71.2771 71.3372H65.6207C62.9572 71.3372 61.6255 71.3372 60.5749 71.7723C59.1743 72.3525 58.0614 73.4653 57.4812 74.866C57.0461 75.9165 57.0461 77.2483 57.0461 79.9118C57.0461 82.5753 57.0461 83.9071 57.4812 84.9576C58.0614 86.3582 59.1743 87.4711 60.5749 88.0513C61.6255 88.4864 62.9572 88.4864 65.6207 88.4864H71.2771C71.3054 88.4864 71.3196 88.4864 71.3284 88.4952C71.3371 88.504 71.3371 88.5181 71.3371 88.5464V94.2028C71.3371 96.8663 71.3371 98.1981 71.7723 99.2486C72.3525 100.649 73.4653 101.762 74.866 102.342C75.9165 102.777 77.2482 102.777 79.9118 102.777C82.5753 102.777 83.907 102.777 84.9575 102.342C86.3582 101.762 87.4711 100.649 88.0512 99.2486C88.4864 98.1981 88.4864 96.8663 88.4864 94.2028V88.5464C88.4864 88.5181 88.4864 88.504 88.4952 88.4952C88.5039 88.4864 88.5181 88.4864 88.5464 88.4864H94.2028C96.8663 88.4864 98.1981 88.4864 99.2486 88.0513C100.649 87.4711 101.762 86.3583 102.342 84.9576C102.777 83.9071 102.777 82.5753 102.777 79.9118C102.777 77.2483 102.777 75.9165 102.342 74.866C101.762 73.4653 100.649 72.3525 99.2486 71.7723C98.1981 71.3372 96.8663 71.3372 94.2028 71.3372H88.5464C88.5181 71.3372 88.5039 71.3372 88.4952 71.3284C88.4864 71.3196 88.4864 71.3055 88.4864 71.2772V65.6208C88.4864 62.9572 88.4864 61.6255 88.0512 60.575C87.4711 59.1743 86.3582 58.0615 84.9575 57.4813C83.907 57.0461 82.5753 57.0461 79.9118 57.0461C77.2482 57.0461 75.9165 57.0461 74.866 57.4813C73.4653 58.0615 72.3525 59.1743 71.7723 60.575Z" stroke="white" stroke-width="3"/>
</svg>
