<svg width="31" height="29" viewBox="0 0 31 29" fill="none" xmlns="http://www.w3.org/2000/svg">
<path d="M30 14.5C30 21.9558 24.0691 28 16.753 28C15.0749 28 13.4697 27.682 11.9922 27.1019C11.722 26.9959 11.5869 26.9428 11.4795 26.9176C11.3739 26.8928 11.2974 26.8824 11.1891 26.8782C11.0789 26.8739 10.9581 26.8866 10.7164 26.9121L2.73545 27.7528C1.97454 27.833 1.59409 27.8731 1.36966 27.7335C1.17419 27.612 1.04105 27.4091 1.00561 27.1785C0.964923 26.9138 1.14673 26.5709 1.51034 25.885L4.05945 21.0766C4.26938 20.6806 4.37435 20.4826 4.42189 20.2922C4.46884 20.1042 4.48019 19.9686 4.46518 19.7752C4.44997 19.5794 4.36566 19.3245 4.19703 18.8146C3.74894 17.4598 3.50605 16.0088 3.50605 14.5C3.50605 7.04416 9.43693 1 16.753 1C24.0691 1 30 7.04416 30 14.5Z" stroke="white" stroke-width="2" stroke-linecap="round" stroke-linejoin="round"/>
<path fill-rule="evenodd" clip-rule="evenodd" d="M16.7482 10.4488C15.3461 8.79887 13.0079 8.35504 11.251 9.86589C9.49421 11.3767 9.24688 13.9028 10.6265 15.6897C11.4813 16.7967 13.6266 18.8186 15.1353 20.1969C15.6895 20.7032 15.9665 20.9564 16.2991 21.0583C16.5844 21.1458 16.9121 21.1458 17.1974 21.0583C17.5299 20.9564 17.807 20.7032 18.3612 20.1969C19.8699 18.8186 22.0152 16.7967 22.8699 15.6897C24.2496 13.9028 24.0324 11.3608 22.2454 9.86589C20.4584 8.37093 18.1504 8.79887 16.7482 10.4488Z" stroke="white" stroke-width="2" stroke-linecap="round" stroke-linejoin="round"/>
</svg>
