<svg width="252" height="563" viewBox="0 0 252 563" fill="none" xmlns="http://www.w3.org/2000/svg">
<path fill-rule="evenodd" clip-rule="evenodd" d="M226.876 296.982C226.697 298.341 226.446 300.033 226.143 302.033C224.143 314.416 219.642 338.06 215.191 359.469C212.283 373.471 209.398 386.524 207.274 394.883C206.035 399.832 205.759 409.908 206.113 422.73C207.375 469.99 217.062 554.352 217.062 554.352C217.062 554.352 171.387 563.609 145.945 562.968C120.478 562.301 18 547.069 18 547.069C18 547.069 23.3358 523.273 29.1539 494.324C36.995 455.347 45.7194 407.037 43.494 394.883C42.4554 389.216 40.9905 372.036 39.5744 349.779C38.8392 338.573 38.1058 326.084 37.4755 313.135C34.9195 261.697 33.5034 202.847 36.892 187.617C36.9444 187.387 36.995 187.18 37.0437 186.975C37.3743 185.643 37.7789 184.692 38.2088 184.232L38.2323 184.206C40.9652 181.385 48.1217 178.001 56.6709 174.719C56.6944 174.719 56.6944 174.693 56.7215 174.693C57.91 174.232 59.1492 173.77 60.3883 173.309L60.4136 173.282C68.5058 170.31 77.3584 167.461 84.5402 165.257C92.9882 162.693 99.1333 161 99.1333 161L150.168 165.667L160.538 171.284L196.83 190.925C196.83 190.925 199.46 204.95 203.356 216.876C207.274 228.798 228.821 281.724 226.876 296.982" fill="#EDA1AB"/>
<path fill-rule="evenodd" clip-rule="evenodd" d="M226 302.909C223.992 315.28 219.466 338.897 214.994 360.286C212.069 374.274 209.17 387.311 207.036 395.663C205.789 400.606 205.511 410.673 205.867 423.48C183.979 430.398 112.244 452.837 92.645 456.629C76.1469 459.805 44.7522 482.296 28 495C35.8814 456.065 44.6505 407.805 42.4138 395.663C40.8633 387.133 38.2961 352.654 36.3643 314L64.4783 236C64.4783 236 73.8848 304.984 72.4087 317.587C72.2072 319.354 72.0547 321.429 71.9276 323.606C78.5362 327.32 90.5861 333.775 96.8135 335.159C105.684 337.157 168.016 328.217 168.016 328.217L164.585 343.254L175.87 328.883C175.87 328.883 212.044 315.203 226 302.909" fill="#DB909A"/>
<path fill-rule="evenodd" clip-rule="evenodd" d="M194 241.706L169.942 242L169 236.296L193.06 236L194 241.706Z" fill="#EB8991"/>
<path fill-rule="evenodd" clip-rule="evenodd" d="M194 241.707L169.94 242L169 236.295L193.06 236L194 241.707Z" fill="white"/>
<path fill-rule="evenodd" clip-rule="evenodd" d="M236.526 391.789C236.526 391.789 231.363 394.972 225.614 391.018C219.865 387.063 218 375.561 218 375.561L242.092 365C242.092 365 243.279 370.167 242.939 373.222C242.6 376.278 239.271 387.886 236.526 391.789" fill="#EB8991"/>
<path fill-rule="evenodd" clip-rule="evenodd" d="M251.889 349.775C251.871 350.139 251.851 350.524 251.798 350.891C250.255 371.095 236.709 391.607 235.765 393C236.092 392.23 238.815 385.981 239.251 382.661C239.36 381.783 239.433 379.856 239.36 377.383C239.178 369.885 237.744 357.234 232.442 352.616C231.97 352.211 231.479 351.791 230.935 351.368C225.068 346.766 215.718 341.837 212.014 339.93C211.96 339.433 211.887 338.794 211.778 338.17C211.56 336.942 211.197 335.785 210.58 335.879L205.822 291.643L198.45 223.098L195 191C195 191 213.485 198.48 225.324 217.032C231.861 227.296 239.16 250.596 244.462 274.723V274.739C244.608 275.674 249.202 305.264 251.145 328.638C251.835 337.015 252.198 344.587 251.889 349.775" fill="#FFAEB7"/>
<path fill-rule="evenodd" clip-rule="evenodd" d="M230.989 350C225.115 345.482 215.748 340.641 212.038 338.769C211.984 338.281 211.911 337.653 211.802 337.041C211.584 335.835 211.22 334.699 210.602 334.791L205.837 291.353V265.087L204 225C204 225 220.441 252.09 223.55 259.851C226.642 267.608 236.499 312.197 236.972 321.506C237.354 329.352 233.735 344.403 230.989 350" fill="#EB8991"/>
<path fill-rule="evenodd" clip-rule="evenodd" d="M171 364L194.404 253.495L241 244L217.596 354.507L171 364Z" fill="#3E5164"/>
<path fill-rule="evenodd" clip-rule="evenodd" d="M241 245.114L237.274 242L191.827 251.407L169 360.888L172.726 364L195.553 254.519L241 245.114Z" fill="white"/>
<path fill-rule="evenodd" clip-rule="evenodd" d="M241 377.068C240.416 377.702 239.812 378.298 239.224 378.82C233.091 384.354 213 387 213 387L213.478 339.876C213.478 339.876 213.458 339.522 213.421 339C217.487 341.106 228.346 346.882 234.023 351.894C239.37 356.59 240.817 369.447 241 377.068" fill="#0099B8"/>
<path fill-rule="evenodd" clip-rule="evenodd" d="M230.688 363.849V363.867C230.519 364.566 230.317 365.32 230.056 366.109C229.854 366.754 229.614 367.414 229.353 368.096C229.204 368.499 229.038 368.924 228.854 369.345C228.614 369.99 228.334 370.632 228.021 371.296C227.854 371.682 227.667 372.068 227.484 372.454C227.26 372.93 227.038 373.39 226.815 373.85C226.575 374.33 226.352 374.789 226.095 375.249C225.836 375.727 225.595 376.187 225.334 376.647C225.334 376.665 225.317 376.665 225.317 376.682C225.058 377.16 224.797 377.619 224.521 378.079C224.206 378.632 223.909 379.129 223.595 379.625C223.5 379.752 223.426 379.899 223.333 380.03C223.058 380.471 222.778 380.876 222.52 381.278C222.185 381.757 221.852 382.216 221.556 382.604C221.389 382.806 221.241 382.99 221.076 383.174C220.926 383.34 220.796 383.503 220.648 383.652C216.427 388.231 179.757 391.704 166.719 386.114C166.719 386.114 161.68 383.027 160.7 378.816C160.645 378.612 160.587 378.373 160.587 378.173C159.995 374.109 162.698 369.566 162.698 369.566C162.698 369.566 159.217 367.103 160.163 363.922C160.237 363.663 160.33 363.389 160.496 363.095C162.365 359.509 163.68 358.259 163.68 358.259L163.663 358.185C163.606 357.891 163.478 357.045 163.663 355.979C163.941 354.232 165.034 351.897 168.718 350.886C168.718 350.886 168.625 349.47 169.236 347.686C169.699 346.434 170.477 344.981 171.905 343.714C172.422 343.236 173.033 342.795 173.738 342.409C173.738 342.409 185.46 346.105 192.146 345.423C192.146 345.423 189.923 343.806 188.46 340.883C188.053 340.037 187.682 339.118 187.46 338.068C187.46 338.068 201.183 338.713 206.852 338.068C208.964 337.812 211.203 338.307 213.409 339.118C216.279 340.202 219.057 341.857 221.241 343.347H221.259C222.002 343.862 222.669 344.34 223.259 344.781C224.482 345.627 225.465 347.171 226.352 348.953C226.889 350.058 227.391 351.252 227.836 352.467C228.908 355.28 229.78 358.112 230.688 359.839C231.13 360.684 231.077 362.102 230.688 363.849" fill="#58BAD3"/>
<path fill-rule="evenodd" clip-rule="evenodd" d="M213 338.784C208.848 338.388 203.965 338.656 202.239 338.756C200.027 338.896 194.147 338.756 192.203 338.756C190.236 338.756 186 338.219 186 338.219C186 338.219 200.27 338.572 206.176 338.219C208.361 338.077 210.709 338.346 213 338.784" fill="#85E4E0"/>
<path fill-rule="evenodd" clip-rule="evenodd" d="M190 367.465C190 367.465 187.159 369.663 185.352 369.958C183.52 370.251 162.689 368.916 162.689 368.916C162.689 368.916 159.231 366.765 160.158 364C161.941 364.68 165.917 366.039 169.529 366.153C174.357 366.289 181.894 366.265 184.294 366.492C186.669 366.741 190 367.465 190 367.465" fill="#0099B8"/>
<path fill-rule="evenodd" clip-rule="evenodd" d="M184 358.436C184 358.436 179.667 358.842 177.033 358.991C174.426 359.119 164.117 357.879 164.117 357.879L164.091 357.816C164.041 357.582 163.914 356.875 164.091 356C166.398 356.426 172.046 357.43 174.047 357.601C176.63 357.816 184 358.436 184 358.436" fill="#0099B8"/>
<path fill-rule="evenodd" clip-rule="evenodd" d="M175 353L169.003 351.343C169.003 351.343 168.93 349.876 169.493 348L175 353Z" fill="#0099B8"/>
<path fill-rule="evenodd" clip-rule="evenodd" d="M212 343.509C212 343.509 201.524 345.557 191.728 344.853C191.728 344.853 189.47 343.488 188 341.001C188.105 341.021 188.525 341.044 190.153 341.001C192.7 340.955 197.767 343.29 200.813 343.509C203.861 343.731 212 343.509 212 343.509" fill="#0099B8"/>
<path fill-rule="evenodd" clip-rule="evenodd" d="M203 345.022C200.602 345.264 189.188 346.303 184.523 345.913C180.675 345.579 174.165 344.484 171 343.927C171.527 343.593 172.16 343.278 172.871 343C172.871 343 184.786 345.635 191.588 345.152C195.963 345.412 201.419 345.114 203 345.022" fill="#85E4E0"/>
<path fill-rule="evenodd" clip-rule="evenodd" d="M230.685 360.257C229.77 358.555 228.891 355.764 227.809 352.989C227.361 351.793 226.855 350.617 226.314 349.528C225.419 347.77 224.427 346.249 223.195 345.415C222.599 344.979 221.927 344.509 221.178 344H221.159C220.825 344.056 219.908 345.232 219.667 346.211C219.424 347.21 216.485 354.349 216.485 354.349H216.493C215.43 356.966 214.989 360.185 213.056 363.882C209.06 371.623 200.169 375.392 200.076 375.427C197.239 376.424 195.203 376.969 195.203 376.786C195.203 376.299 193.95 364.283 193.95 364.283L188.946 373.325C188.946 373.325 176.79 379.452 173.315 380.085C170.945 380.556 164.052 379.215 160 378.329C160 378.526 160.058 378.762 160.114 378.961C161.102 383.111 166.183 386.156 166.183 386.156C179.33 391.666 216.306 388.241 220.562 383.728C220.711 383.583 220.842 383.42 220.993 383.256C221.143 383.077 221.292 382.894 221.441 382.715C221.441 382.715 221.46 382.715 221.477 382.696C221.776 382.314 222.112 381.861 222.45 381.39C222.709 380.991 222.991 380.594 223.27 380.157C223.363 380.03 223.438 379.885 223.533 379.76C223.85 379.269 224.149 378.782 224.467 378.236C224.745 377.783 225.008 377.33 225.27 376.859C225.27 376.841 225.286 376.841 225.286 376.824C225.4 376.679 225.475 376.516 225.568 376.371C225.736 376.063 225.903 375.755 226.054 375.447C226.314 374.994 226.538 374.541 226.78 374.068C226.801 374.033 226.82 373.977 226.855 373.943C227.062 373.524 227.268 373.109 227.455 372.69C227.639 372.31 227.828 371.929 227.996 371.548C228.312 370.896 228.594 370.263 228.836 369.627C229.021 369.21 229.189 368.794 229.339 368.395C229.602 367.724 229.845 367.074 230.048 366.437C230.312 365.658 230.515 364.915 230.685 364.226V364.21C231.077 362.486 231.132 361.091 230.685 360.257" fill="#0099B8"/>
<path fill-rule="evenodd" clip-rule="evenodd" d="M180.891 91.1312C180.58 87.76 179.234 84.778 176.009 84.1452C173.31 83.6161 170.129 84.527 168.367 86.98C165.996 88.4837 165.329 95.4079 165.098 97.3245C164.852 99.381 164.73 101.45 164.508 103.509C164.264 105.769 163.252 108.651 163.039 111.22C162.941 112.384 162.991 113.671 163.619 114.651C164.474 115.982 165.994 116.171 167.336 115.884C170.378 115.237 173.184 112.777 175.232 110.304C179.389 105.283 181.521 97.9718 180.891 91.1312" fill="#FFD3D1"/>
<path fill-rule="evenodd" clip-rule="evenodd" d="M149.941 136.056C148.993 140.396 148.97 149.049 149.174 156.945C149.402 165.678 149.609 167.824 149.609 167.824C149.609 167.824 147.638 181.232 129.659 182.904C111.706 184.604 98 163.062 98 163.062C99.253 159.063 100.199 153.991 100.891 149.338C101.964 142.225 102.424 136.056 102.424 136.056C102.424 136.056 151.936 126.93 149.941 136.056" fill="#FFD3D1"/>
<path fill-rule="evenodd" clip-rule="evenodd" d="M149.941 135.962C148.996 140.202 148.972 148.657 149.176 156.37C144.148 162.194 137.259 167.737 129.704 166.92C119.09 165.77 107.249 155.246 101 148.939C102.07 141.99 102.529 135.962 102.529 135.962C102.529 135.962 151.932 127.047 149.941 135.962" fill="#FF9BA1"/>
<path fill-rule="evenodd" clip-rule="evenodd" d="M173.983 57.6091C174.07 48.0386 172.549 38.2524 166.725 30.6677C160.633 22.7333 151.128 18.3883 141.599 16.8102C121.07 13.4128 98.6266 20.6387 87.5633 39.653C83.8554 46.0237 81.2577 53.516 80.03 61.1478C79.7916 60.9177 77.4732 80.3324 77.096 89.7381C76.7526 98.2777 77.2508 106.899 79.893 115.058C84.382 128.906 94.4721 138.845 105.767 147.105C111.375 151.206 117.46 155.862 124.475 156.839C131.359 157.796 137.238 154.367 142.266 149.854C154.278 139.075 165.88 125.199 171.033 109.441C174.049 100.213 173.84 90.7528 174.278 81.1695C174.632 73.4362 175.86 65.2319 173.983 57.6091" fill="#FAE0BD"/>
<path fill-rule="evenodd" clip-rule="evenodd" d="M85.8348 90.5387C85.5379 87.8012 84.2412 83.5589 81.3473 82.624C81.2126 82.5786 81.0869 82.5895 80.9649 82.6167C80.149 81.8924 79.1528 81.3841 77.9981 81.1627C75.8181 80.7433 73.2029 81.0991 71.5092 82.6476C69.4294 84.5464 68.7118 87.9428 68.3348 90.6095C67.9105 93.6084 67.8959 96.6762 68.2547 99.686C68.9813 105.811 72.3123 112.023 78.1966 114.484C80.3857 115.401 82.4564 115.259 83.1977 112.707C83.6056 111.297 83.7914 109.788 84.0992 108.352C84.5508 106.237 85.0025 104.117 85.3103 101.975C85.8384 98.2973 86.2391 94.2528 85.8348 90.5387" fill="#FFD3D1"/>
<path fill-rule="evenodd" clip-rule="evenodd" d="M135.287 130.006C134.455 129.94 133.916 130.424 133.261 130.83C132.623 131.226 131.944 131.569 131.239 131.842C129.77 132.404 128.193 132.735 126.613 132.804C125.04 132.873 123.479 132.693 121.971 132.253C121.235 132.037 120.537 131.741 119.881 131.352C119.724 131.261 119.582 131.146 119.408 131.082C119.35 131.06 119.118 130.98 119.069 130.969C118.706 130.802 118.357 130.521 118.057 130.278C117.556 129.878 116.709 130.388 117.1 130.987C117.338 131.347 117.591 131.723 117.892 132.037C118.129 132.284 118.269 132.583 118.701 132.892C119.408 133.398 120.173 133.796 120.987 134.123C122.722 134.82 124.626 135.058 126.5 134.988C128.394 134.915 130.288 134.548 132.046 133.862C133.414 133.326 135.985 132.382 136 130.693C136.004 130.298 135.668 130.037 135.287 130.006" fill="#FF6969"/>
<path fill-rule="evenodd" clip-rule="evenodd" d="M133.895 112.277C133.589 110.684 132.625 109.722 131.685 108.582C131.372 108.2 131.33 107.527 131.265 106.878C131.147 105.687 131.102 104.514 130.902 103.336C130.826 102.887 130.178 102.889 130.098 103.336C129.919 104.367 129.781 105.374 129.72 106.423C129.676 107.203 129.655 108.032 129.883 108.784C130.247 109.999 131.312 110.65 131.821 111.766C132.033 112.227 132.143 112.704 132.152 113.163C132.161 113.634 132.109 113.957 131.917 114.271C131.882 114.317 131.844 114.36 131.804 114.402C131.774 114.428 131.777 114.428 131.765 114.438C131.752 114.448 131.752 114.446 131.721 114.469C131.689 114.491 131.656 114.509 131.623 114.527C131.614 114.527 131.593 114.535 131.542 114.556C131.511 114.566 131.395 114.58 131.37 114.584C131.132 114.596 131.105 114.59 130.812 114.489C130.377 114.341 130.053 114.37 129.62 114.515C129.082 114.695 128.843 115.374 129.109 115.926C129.368 116.458 129.674 116.791 130.221 116.905C130.587 116.982 130.957 117.026 131.328 116.984C131.978 116.907 132.603 116.644 133.074 116.116C133.965 115.124 134.15 113.608 133.895 112.277" fill="#FF9BA1"/>
<path fill-rule="evenodd" clip-rule="evenodd" d="M146.56 87.5361C146.15 86.696 144.958 86.9244 144.558 87.6612C144.496 87.7764 144.427 87.8896 144.367 88.0028C144.199 88.3285 144.186 88.5708 144.155 88.9243C144.132 89.1765 144.112 89.4287 144.092 89.679C144.042 90.249 144.022 90.811 144.014 91.3829C144.004 91.9331 143.998 92.4812 144.001 93.0313C144.002 93.3054 144.005 93.5814 144.011 93.8575C144.019 94.2467 144.098 94.6221 144.162 95.0054C144.262 95.6032 144.995 96.056 145.548 95.9944C146.111 95.9328 146.798 95.484 146.867 94.8326C146.992 93.6211 146.95 92.4097 146.981 91.1963C146.995 90.6461 147.008 90.106 146.994 89.5598C146.987 89.2897 146.99 89.0157 146.971 88.7456C146.938 88.2749 146.757 87.9373 146.56 87.5361" fill="#00143B"/>
<path fill-rule="evenodd" clip-rule="evenodd" d="M154.598 74.7275C154.081 74.2894 153.584 73.8183 153.033 73.4278C151.533 72.3682 149.508 72.0895 147.727 72.0089C144.123 71.8457 140.885 73.9503 139.084 77.0667C138.701 77.7304 139.729 78.35 140.187 77.7689C142.108 75.327 145.233 74.0034 148.275 74.3077C149.663 74.4452 151.072 74.7 152.175 75.6093C152.915 76.2216 154.288 77.9009 155.362 77.3711C155.906 77.1034 156.1 76.6066 155.952 76.0163C155.808 75.4498 155.027 75.0887 154.598 74.7275" fill="#FF9043"/>
<path fill-rule="evenodd" clip-rule="evenodd" d="M107.439 87.5361C107.85 86.696 109.044 86.9244 109.443 87.6612C109.504 87.7764 109.574 87.8896 109.634 88.0028C109.801 88.3285 109.815 88.5708 109.845 88.9243C109.868 89.1765 109.889 89.4287 109.909 89.679C109.958 90.249 109.978 90.811 109.988 91.3829C109.996 91.9331 110.002 92.4812 109.999 93.0313C109.998 93.3054 109.995 93.5814 109.989 93.8575C109.982 94.2467 109.904 94.6221 109.839 95.0054C109.738 95.6032 109.006 96.056 108.452 95.9944C107.89 95.9328 107.201 95.484 107.134 94.8326C107.008 93.6211 107.049 92.4097 107.018 91.1963C107.004 90.6461 106.992 90.106 107.007 89.5598C107.014 89.2897 107.011 89.0157 107.029 88.7456C107.061 88.2749 107.242 87.9373 107.439 87.5361" fill="#00143B"/>
<path fill-rule="evenodd" clip-rule="evenodd" d="M99.4 74.7275C99.917 74.2894 100.414 73.8183 100.967 73.4278C102.467 72.3682 104.492 72.0895 106.273 72.0089C109.876 71.8457 113.114 73.9503 114.917 77.0667C115.298 77.7304 114.269 78.35 113.814 77.7689C111.893 75.327 108.766 74.0034 105.724 74.3077C104.336 74.4452 102.928 74.7 101.825 75.6093C101.083 76.2216 99.7102 77.9009 98.6363 77.3711C98.0921 77.1034 97.8998 76.6066 98.0485 76.0163C98.1919 75.4498 98.9737 75.0887 99.4 74.7275" fill="#FF9043"/>
<path fill-rule="evenodd" clip-rule="evenodd" d="M160 109.999C160 111.104 157.538 112 154.5 112C151.462 112 149 111.104 149 109.999C149 108.896 151.462 108 154.5 108C157.538 108 160 108.896 160 109.999" fill="#FFBCC1"/>
<path fill-rule="evenodd" clip-rule="evenodd" d="M108 109.999C108 111.104 105.313 112 101.999 112C98.6875 112 96 111.104 96 109.999C96 108.896 98.6875 108 101.999 108C105.313 108 108 108.896 108 109.999" fill="#FFBCC1"/>
<path fill-rule="evenodd" clip-rule="evenodd" d="M166.374 117L164 116.145C164.064 115.981 170.526 99.5284 172.497 88L175 88.3895C172.988 100.158 166.644 116.318 166.374 117" fill="white"/>
<path fill-rule="evenodd" clip-rule="evenodd" d="M169 111.401C169 111.401 168.887 112.266 168.649 113.658C168.188 116.602 167.209 121.909 165.677 126.083C160.913 139.138 141.86 158.95 133.034 160.574C123.914 162.253 114.461 158.95 103.254 151.02C101.555 149.812 99.8917 148.474 98.3242 147.048C89.5174 139.228 83 129.35 83 129.35C83 129.35 84.4401 112.105 87.3018 109.776C90.1636 107.446 141.86 94.8588 169 111.401" fill="white"/>
<path fill-rule="evenodd" clip-rule="evenodd" d="M169 114.65C168.544 117.532 167.579 122.728 166.066 126.814C161.361 139.596 142.54 158.993 133.824 160.583C124.817 162.227 115.479 158.993 104.41 151.229C102.732 150.047 101.091 148.737 99.5407 147.34L95 140.267C95 140.267 99.6865 144.228 102.934 144.583C102.934 144.583 115.971 146.084 119.255 145.413C122.538 144.725 126.165 136.344 126.165 136.344C126.165 136.344 141.847 131.869 146.479 131.869C151.111 131.869 156.764 124.374 156.673 119.583C156.582 114.791 156.673 108 156.673 108C156.673 108 164.149 110.281 169 114.65" fill="#F0F0F0"/>
<path fill-rule="evenodd" clip-rule="evenodd" d="M87.1722 112C87.091 111.785 79.0688 90.3969 76 85.3105L77.6332 84C80.8185 89.2736 88.6691 110.2 89 111.089L87.1722 112Z" fill="white"/>
<path fill-rule="evenodd" clip-rule="evenodd" d="M83.9216 130C83.8314 129.847 75.028 114.487 71 102.762L73.2662 102C77.2205 113.514 85.9135 128.676 86 128.829L83.9216 130Z" fill="white"/>
<path fill-rule="evenodd" clip-rule="evenodd" d="M180.831 61.445C179.439 78.6928 169.483 107.642 169.483 107.642C170.803 100.941 170.999 90.936 168.822 82.6119C167.77 78.5302 166.146 74.8639 163.791 72.1711C161.953 70.0761 158.812 68.308 154.869 66.8433V66.8252C143.414 62.5828 125.178 60.9935 112.67 62.3841C95.8615 64.2444 87.1165 71.4686 82.2828 83.1176C78.3216 92.6517 79.0353 112.609 79.4101 119.546C79.5171 121.063 79.5706 122 79.5706 122C79.5706 122 69.6141 115.049 63.4029 103.398C60.9584 98.8103 59.4435 91.2809 58.6584 83.1537C57.4451 70.5836 57.9982 56.621 59.5862 50.085C59.6041 50.047 59.6201 50.0308 59.6201 49.9928C61.1386 40.2239 64.8125 31.2117 70.31 23.4638C80.9089 8.54584 108.066 -7.06023 141.913 3.41485C146.661 4.89581 150.89 6.75785 154.601 8.92511C162.238 13.3481 167.823 19.039 171.856 25.2139C179.85 37.4607 181.614 51.5822 180.831 61.445" fill="#00CCB2"/>
<path fill-rule="evenodd" clip-rule="evenodd" d="M180.833 61.4825C179.462 78.85 169.651 108 169.651 108C170.952 101.253 171.145 91.1781 169 82.7963C169.826 82.2125 170.6 81.3596 171.215 80.103C173.8 74.9218 174.31 67.1747 174.468 62.6082C174.642 58.0272 176.684 58.3364 177.194 52.8061C177.579 48.5524 175.75 34.5475 171.989 25C179.866 37.3318 181.605 51.5513 180.833 61.4825" fill="#00A48F"/>
<path fill-rule="evenodd" clip-rule="evenodd" d="M156 66.9514C144.409 62.6806 125.956 61.0832 113.302 62.4807C96.2951 64.3526 87.4468 71.622 82.5542 83.3458C78.548 92.9396 79.2701 113.021 79.6493 120C79.2882 114.566 78.3295 101.736 77.3726 98.2644C76.1468 93.7956 78.0786 82.5443 81.22 78.1463C84.3596 73.7301 86.4538 67.751 90.3896 64.0618C94.3272 60.3726 96.2392 60.3726 106.297 59.1368C116.333 57.9028 121.336 56.2108 126.949 57.4103C132.582 58.6097 136.772 59.3185 141.844 60.3726C146.919 61.4266 156 66.9514 156 66.9514" fill="#00DABE"/>
<path fill-rule="evenodd" clip-rule="evenodd" d="M143.13 3.36755C108.791 -6.96242 81.2417 8.42745 70.4874 23.1388C64.9121 30.7794 61.1831 39.6667 59.6445 49.3003C59.6445 49.3377 59.6264 49.3537 59.6083 49.3911C57.9991 55.8367 57.4361 69.604 58.6688 82C59.7531 72.9898 61.7823 56.0166 62.5408 50.5132C63.3572 44.6055 66.7693 36.4341 71.8396 29.1177C70.7535 33.3743 71.5663 36.427 71.5663 36.427C72.2741 42.3115 77.7897 38.078 80.5918 33.9407C83.3958 29.8051 89.3512 25.4951 94.7818 19.8581C99.7996 14.6486 99.4285 8.87983 97.2527 7.34993C101.063 5.78262 105.341 4.64811 110.239 4.16901C126.657 2.56787 132.649 5.73632 141.032 5.66508C144.58 5.64727 150.425 7.10949 156 8.80147C152.235 6.66423 147.945 4.82799 143.13 3.36755" fill="#00DABE"/>
<path fill-rule="evenodd" clip-rule="evenodd" d="M160 172.028C157.859 185.33 152.699 210.596 142.543 225C142.543 225 98.3689 195.128 83 165.936C98.7916 160.872 99.0295 157 99.0295 157C101.976 159.22 104.812 161.037 107.557 162.523C123.037 170.927 135.206 168.688 142.305 165.697C146.787 163.807 149.24 161.624 149.24 161.624C150.43 166.119 158.774 171.275 159.872 171.954C159.962 172.009 160 172.028 160 172.028" fill="white"/>
<path fill-rule="evenodd" clip-rule="evenodd" d="M226.949 368.646L226.924 368.697C226.373 370.325 225.568 372.209 224.417 374.354V374.379C222.158 378.536 218.625 383.572 213.057 389.097C212.229 389.899 211.352 390.698 210.474 391.5C193.974 406.477 156.586 420.963 142.518 421.972C136.4 422.41 114.383 417.683 90.9612 411.873C90.7875 411.849 90.7123 411.822 90.7123 411.822C60.2695 404.281 27.5951 395.012 24.5863 392.996C11.4728 384.217 5.17758 370.506 3.72332 362.888C3.44751 361.52 3.272 359.738 3.1717 357.748C2.64516 348.634 3.49766 335 3.49766 335L52.7223 341.996L51.4436 352.585L50.7917 358.085C50.7917 358.085 72.6325 369.007 90.1105 379.517C107.563 390.027 140.086 396.974 140.086 396.974L140.112 396.947C150.317 384.992 167.744 381.48 169.851 379.517C171.958 377.529 188.132 361.003 191.04 360.513C193.974 359.996 192.996 365.987 190.088 373.5C187.304 380.679 178.953 386.49 178.276 386.956C179.154 386.724 193.347 382.565 201.949 377.529C201.949 377.529 201.974 377.529 202.024 377.504C204.507 376.031 206.513 374.507 207.566 372.985C212.405 365.987 217.745 355.011 220.654 355.011C221.007 355.011 221.308 355.115 221.609 355.322C223.765 356.767 224.517 362.888 224.517 362.888C224.517 362.888 227.451 361.494 227.927 362.888C228.103 363.405 228.027 365.47 226.949 368.646" fill="#58BAD3"/>
<path fill-rule="evenodd" clip-rule="evenodd" d="M222 355.318C219.738 357.085 215.674 362.976 212.487 368.942C208.96 375.519 203.632 377.763 203 378C205.408 376.494 207.354 374.936 208.376 373.379C213.071 366.223 218.254 355 221.076 355C221.416 355 221.708 355.106 222 355.318" fill="#85E4E0"/>
<path fill-rule="evenodd" clip-rule="evenodd" d="M192 360C192 360 184.191 366.302 181.076 373.626C177.963 380.953 168.445 383.701 160.561 387.094C152.928 390.379 141.703 397.571 141 398C151.221 385.531 168.671 381.87 170.782 379.821C172.891 377.748 189.087 360.513 192 360" fill="#85E4E0"/>
<path fill-rule="evenodd" clip-rule="evenodd" d="M228 369C227.446 370.619 226.644 372.492 225.492 374.625V374.649C223.233 378.784 219.697 383.791 214.129 389.285C213.301 390.083 212.423 390.877 211.544 391.672C195.041 406.567 157.642 420.969 143.571 421.972C137.451 422.408 115.429 417.71 92 411.932C95.5614 412.497 136.498 418.941 144.877 417.993C153.605 417.017 193.986 401.391 204.496 394.472C222.215 382.808 227.221 370.13 228 369" fill="#0099B8"/>
<path fill-rule="evenodd" clip-rule="evenodd" d="M136.282 417.399C136.067 418.76 135.834 419.993 135.601 421.028C135.048 423.512 134.544 425 134.544 425C134.544 425 132.106 424.294 125.17 423.242C118.235 422.189 30.1207 401.809 20.7447 395.496C20.7268 395.496 20.7268 395.478 20.7106 395.478C11.3723 389.145 2.51604 374.354 0.974582 365.517C0.761287 364.266 0.526483 361.69 0.347243 358.042C-0.726401 335.813 -0.11878 273.445 14.2204 223.633C23.1286 192.694 36.4102 185.47 37.181 185.034L37.2168 185C37.8441 185.218 38.4177 185.436 38.9913 185.706C39.1347 185.744 39.2978 185.797 39.4394 185.869C67.9385 198.172 67.4007 252.611 62.3103 294.712C61.3066 302.985 60.1236 310.79 58.9586 317.685C58.8152 318.554 58.6539 319.409 58.4943 320.278C56.3417 332.728 54.2804 341.892 53.5276 345.068C53.4219 345.483 53.3304 345.902 53.2408 346.3C51.8786 352.669 50.9286 356.863 50.9286 356.863C50.9286 356.863 69.6592 364.938 90.8632 378.056C112.067 391.159 135.048 395.077 135.048 395.077C135.099 395.242 135.153 395.423 135.191 395.585C135.279 395.839 135.35 396.095 135.424 396.347C137.609 404.116 137.143 411.9 136.282 417.399" fill="#FCB0BA"/>
<path fill-rule="evenodd" clip-rule="evenodd" d="M68.9192 403.903C77.8176 407.108 116.212 416.106 120 417C115.793 416.329 70.2787 408.877 42.9057 401.985C34.7868 399.954 27.2987 398.201 20.5936 396.433C11.1497 389.931 2.19332 374.748 0.634431 365.674C0.418725 364.39 0.181266 361.745 0 358C2.23139 360.832 14.3019 376.237 19.8124 382.535C25.9047 389.484 59.5659 400.53 68.9192 403.903" fill="#DB909A"/>
</svg>
