<svg width="62" height="62" viewBox="0 0 62 62" fill="none" xmlns="http://www.w3.org/2000/svg">
<path d="M41.3126 25.0135C42.3978 23.0843 43.3027 21.3434 43.8608 20.0184C46.5708 13.5845 43.8911 6.18364 37.3405 3.16476C30.7899 0.145887 24.2121 3.27619 21.3252 9.32016C15.8047 5.5301 8.44061 6.08672 4.37951 12.0012C0.318415 17.9157 1.59297 25.6425 7.15523 29.8588C9.67965 31.7723 14.6723 34.5924 19.3727 37.1019M43.494 30.3115C42.269 23.7259 36.6684 18.9096 29.6168 20.2186C22.5651 21.5277 18.0056 27.8931 18.9589 34.8096C19.7248 40.3665 23.9524 53.4044 25.5849 58.3155C25.8076 58.9856 25.919 59.3207 26.1395 59.5544C26.3317 59.7579 26.5871 59.9055 26.8593 59.9702C27.1719 60.0444 27.5176 59.9734 28.2091 59.8313C33.2762 58.7903 46.6753 55.9345 51.8682 53.8196C58.3316 51.1874 61.6672 44.0584 59.1688 37.2894C56.6704 30.5203 49.8068 28.0801 43.494 30.3115Z" stroke="#0032FF" stroke-width="3" stroke-linecap="round" stroke-linejoin="round"/>
</svg>
