<svg width="62" height="62" viewBox="0 0 62 62" fill="none" xmlns="http://www.w3.org/2000/svg">
<path fill-rule="evenodd" clip-rule="evenodd" d="M10.4929 19.8128C14.1772 10.9658 22.8098 5.19292 32.3933 5.16733C42.722 5.11293 51.906 11.7288 55.1256 21.543C58.3453 31.3572 54.8651 42.1277 46.5114 48.2023C38.1577 54.2768 26.8389 54.2678 18.495 48.1798L11.055 55.6198C10.2985 56.3753 9.07307 56.3753 8.31663 55.6198C7.56112 54.8634 7.56112 53.6379 8.31663 52.8815L15.5241 45.674C8.79171 38.8536 6.80852 28.6597 10.4929 19.8128ZM13.9472 36.6038C17.0407 44.0584 24.3223 48.9136 32.3933 48.9032V48.7998C43.3474 48.7859 52.2399 39.9395 52.3108 28.9857C52.3212 20.9146 47.466 13.633 40.0114 10.5395C32.5567 7.44607 23.9725 9.1507 18.2654 14.8578C12.5583 20.5649 10.8537 29.1491 13.9472 36.6038Z" fill="white"/>
</svg>
