<svg width="62" height="62" viewBox="0 0 62 62" fill="none" xmlns="http://www.w3.org/2000/svg">
<path d="M31.2583 53.7333C29.9667 53.7333 28.4167 53.2167 27.3833 52.1833C10.5917 37.4583 10.3334 37.2 10.3334 36.9417L10.075 36.6833C6.97501 33.5833 5.16669 29.1917 5.16669 24.8V24.2833C5.42502 14.9833 12.9167 7.75 22.2167 7.75C25.0583 7.75 28.9333 9.3 31.2583 12.4C33.5833 9.3 37.7167 7.75 40.5583 7.75C49.8583 7.75 57.0917 14.9833 57.6083 24.2833V24.8C57.6083 29.45 55.8 33.5833 52.7 36.9417L52.4417 37.2C52.1833 37.4583 50.1167 39.2667 35.3917 52.4417C34.1 53.2167 32.8083 53.7333 31.2583 53.7333ZM14.2084 36.1667C15.2417 37.2 20.4083 40.8167 29.9667 49.0833C30.7417 49.8583 31.775 49.8583 32.55 49.0833C42.3667 40.3 48.05 35.3917 49.3417 34.3583L49.6 34.1C52.1833 31.5167 53.475 28.1583 53.475 24.8V24.2833C53.2167 17.05 47.5333 11.625 40.3 11.625C38.4917 11.625 34.875 12.9167 33.5834 15.7583C33.0667 16.7917 32.0334 17.3083 31 17.3083C29.9667 17.3083 28.9334 16.7917 28.4167 15.7583C27.125 13.175 23.7667 11.625 21.7 11.625C14.725 11.625 8.78335 17.3083 8.52502 24.2833V25.0583C8.52502 28.4167 10.075 31.775 12.4 34.1L14.2084 36.1667Z" fill="white"/>
</svg>
