<svg width="58" height="52" viewBox="0 0 58 52" fill="none" xmlns="http://www.w3.org/2000/svg">
<path d="M38.45 25.0944H35.75L31.7 33.2453L26.3 16.9434L22.25 25.0944H19.55M28.9815 7.80297C23.5833 1.45226 14.5813 -0.256067 7.81768 5.55928C1.05404 11.3746 0.101813 21.0976 5.41333 27.9755C9.42524 33.1704 20.8225 43.5996 26.1596 48.3922C27.1407 49.2732 27.6313 49.7137 28.2057 49.8871C28.7044 50.0376 29.2586 50.0376 29.7573 49.8871C30.3317 49.7137 30.8223 49.2732 31.8034 48.3922C37.1405 43.5996 48.5378 33.1704 52.5497 27.9755C57.8612 21.0976 57.0252 11.3135 50.1453 5.55928C43.2654 -0.194896 34.3798 1.45226 28.9815 7.80297Z" stroke="#0032FF" stroke-width="3" stroke-linecap="round" stroke-linejoin="round"/>
</svg>
