<svg width="30" height="30" viewBox="0 0 30 30" fill="none" xmlns="http://www.w3.org/2000/svg">
<path d="M12.3852 16.3087C12.9467 17.0601 13.663 17.6818 14.4856 18.1316C15.3082 18.5815 16.2178 18.849 17.1528 18.9161C18.0878 18.9831 19.0262 18.848 19.9044 18.5201C20.7827 18.1922 21.5802 17.679 22.2429 17.0154L26.165 13.0893C27.3558 11.8552 28.0146 10.2023 27.9998 8.48662C27.9849 6.77094 27.2974 5.12975 26.0854 3.91654C24.8734 2.70333 23.2339 2.01516 21.5199 2.00025C19.806 1.98534 18.1547 2.64488 16.9218 3.83683L14.6732 6.0747M17.6148 13.6913C17.0533 12.9399 16.337 12.3182 15.5144 11.8684C14.6918 11.4185 13.7822 11.151 12.8472 11.0839C11.9122 11.0169 10.9738 11.152 10.0956 11.4799C9.21733 11.8078 8.41981 12.321 7.75712 12.9846L3.83498 16.9107C2.64424 18.1448 1.98535 19.7977 2.00025 21.5134C2.01514 23.2291 2.70262 24.8702 3.91461 26.0835C5.12661 27.2967 6.76614 27.9848 8.48009 27.9998C10.194 28.0147 11.8453 27.3551 13.0782 26.1632L15.3138 23.9253" stroke="white" stroke-width="3" stroke-linecap="round" stroke-linejoin="round"/>
</svg>
