<!DOCTYPE svg PUBLIC "-//W3C//DTD SVG 1.1//EN" "http://www.w3.org/Graphics/SVG/1.1/DTD/svg11.dtd">
<!-- Uploaded to: SVG Repo, www.svgrepo.com, Transformed by: SVG Repo Mixer Tools -->
<svg fill="#ffffff" height="800px" width="800px" version="1.1" id="Layer_1" xmlns="http://www.w3.org/2000/svg" xmlns:xlink="http://www.w3.org/1999/xlink" viewBox="0 0 512 512" xml:space="preserve" stroke="#ffffff">
<g id="SVGRepo_bgCarrier" stroke-width="0"/>
<g id="SVGRepo_tracerCarrier" stroke-linecap="round" stroke-linejoin="round"/>
<g id="SVGRepo_iconCarrier"> <g> <g> <path d="M419.556,0c-80,0-94.578,28.444-163.556,28.444C186.311,28.444,170.311,0,92.444,0c-35.29,0-64,28.71-64,64v113.778 c0,35.29,28.71,64,64,64h64v8.232l-26.507,6.628l10.347,41.392l16.159-4.039v41.353l-26.507,6.628l10.347,41.392l16.159-4.039 v41.353l-26.507,6.628l10.347,41.392l18.224-4.557C165.682,491.641,190.727,512,220.444,512h56.889c35.291,0,64-28.71,64-64 v-29.565l26.507-6.628l-10.347-41.392l-16.161,4.039v-41.353l26.507-6.628l-10.347-41.392l-16.161,4.039v-41.353l23.96-5.99 h54.262c35.291,0,64-28.71,64-64V64C483.556,28.71,454.847,0,419.556,0z M298.667,448c0,11.763-9.57,21.333-21.333,21.333h-56.889 c-9.756,0-17.984-6.591-20.516-15.548l98.738-24.684V448z M298.667,385.121l-99.556,24.889v-41.352l99.556-24.889V385.121z M298.667,299.787l-99.556,24.889v-41.353l99.556-24.889V299.787z M440.889,177.778c0,11.763-9.569,21.333-21.333,21.333H92.444 c-11.763,0-21.333-9.57-21.333-21.333V64c0-11.763,9.57-21.333,21.333-21.333C160.711,42.667,176,71.111,256,71.111 c79.289,0,94.222-28.444,163.556-28.444c11.765,0,21.333,9.57,21.333,21.333V177.778z"/> </g> </g> </g>
</svg>