<svg width="1019" height="4" viewBox="0 0 1019 4" fill="none" xmlns="http://www.w3.org/2000/svg">
<rect width="40" height="4" rx="2" fill="#0032FF"/>
<rect x="58" width="40" height="4" rx="2" fill="#0032FF"/>
<rect x="116" width="40" height="4" rx="2" fill="#0032FF"/>
<rect x="174" width="40" height="4" rx="2" fill="#0032FF"/>
<rect x="232" width="40" height="4" rx="2" fill="#0032FF"/>
<rect x="290" width="40" height="4" rx="2" fill="#0032FF"/>
<rect x="348" width="40" height="4" rx="2" fill="#0032FF"/>
<rect x="406" width="40" height="4" rx="2" fill="#0032FF"/>
<rect x="464" width="40" height="4" rx="2" fill="#0032FF"/>
<rect x="515" width="40" height="4" rx="2" fill="#0032FF"/>
<rect x="573" width="40" height="4" rx="2" fill="#0032FF"/>
<rect x="631" width="40" height="4" rx="2" fill="#0032FF"/>
<rect x="689" width="40" height="4" rx="2" fill="#0032FF"/>
<rect x="747" width="40" height="4" rx="2" fill="#0032FF"/>
<rect x="805" width="40" height="4" rx="2" fill="#0032FF"/>
<rect x="863" width="40" height="4" rx="2" fill="#0032FF"/>
<rect x="921" width="40" height="4" rx="2" fill="#0032FF"/>
<rect x="979" width="40" height="4" rx="2" fill="#0032FF"/>
</svg>
