<svg width="30" height="30" viewBox="0 0 30 30" fill="none" xmlns="http://www.w3.org/2000/svg">
<path d="M17.9088 6.55555C19.2715 6.82022 20.5238 7.48368 21.5055 8.46101C22.4872 9.43834 23.1537 10.6851 23.4195 12.0417M17.9088 1C20.7399 1.31311 23.3799 2.57524 25.3953 4.57917C27.4108 6.58311 28.6819 9.20973 29 12.0278M12.5752 17.4765C10.8989 15.8076 9.57522 13.9206 8.60422 11.9072C8.5207 11.7341 8.47894 11.6475 8.44685 11.5379C8.33284 11.1485 8.41474 10.6704 8.65192 10.3406C8.71867 10.2478 8.79841 10.1685 8.95788 10.0097C9.44563 9.52412 9.6895 9.28134 9.84894 9.0372C10.4502 8.11652 10.4502 6.92961 9.84894 6.00893C9.6895 5.76479 9.44563 5.52201 8.95788 5.03645L8.68602 4.76579C7.94459 4.02768 7.57388 3.65862 7.17574 3.45815C6.38393 3.05944 5.44883 3.05944 4.65701 3.45815C4.25887 3.65862 3.88816 4.02768 3.14673 4.76579L2.92681 4.98473C2.18793 5.72032 1.81848 6.08811 1.53632 6.58815C1.22323 7.14302 0.998109 8.00482 1.00001 8.64124C1.00173 9.21477 1.11348 9.60675 1.33699 10.3907C2.53814 14.6037 4.80448 18.5792 8.136 21.8959C11.4675 25.2125 15.4608 27.4687 19.6928 28.6645C20.4803 28.887 20.874 28.9983 21.4501 29C22.0894 29.0019 22.955 28.7778 23.5124 28.4661C24.0147 28.1852 24.3841 27.8174 25.123 27.0818L25.3429 26.8629C26.0844 26.1247 26.4551 25.7557 26.6565 25.3593C27.057 24.571 27.057 23.6401 26.6565 22.8518C26.4551 22.4555 26.0844 22.0864 25.3429 21.3483L25.0711 21.0777C24.5833 20.5921 24.3395 20.3493 24.0942 20.1906C23.1694 19.592 21.9772 19.592 21.0524 20.1906C20.8071 20.3493 20.5633 20.5921 20.0755 21.0777C19.916 21.2364 19.8363 21.3158 19.7431 21.3823C19.4118 21.6184 18.9316 21.6999 18.5404 21.5864C18.4304 21.5545 18.3434 21.5129 18.1694 21.4297C16.147 20.4631 14.2516 19.1453 12.5752 17.4765Z" stroke="white" stroke-width="2" stroke-linecap="round" stroke-linejoin="round"/>
</svg>
