<svg width="62" height="62" viewBox="0 0 62 62" fill="none" xmlns="http://www.w3.org/2000/svg">
<path d="M43.4516 40.0029C42.5091 39.5292 41.3608 39.8967 40.8683 40.8295C40.4132 41.7799 40.7894 42.92 41.7208 43.4129C43.9941 44.5754 45.2858 45.9962 45.2858 47.3654C45.2858 50.2845 39.1891 53.5395 31.0258 53.5395C22.8625 53.5395 16.74 50.3104 16.74 47.4687C16.74 46.1254 18.0316 44.6787 20.305 43.5162C20.9867 43.2429 21.4553 42.6075 21.515 41.8754C21.5747 41.1433 21.2153 40.4404 20.5869 40.0602C19.9585 39.68 19.1691 39.6878 18.5483 40.0804C15.4119 41.2625 13.2253 44.1311 12.9166 47.4687C12.9166 53.2037 20.6666 57.5179 31 57.5179C41.3333 57.5179 49.0833 53.2037 49.0833 47.4687C48.8031 44.1022 46.6117 41.197 43.4516 40.0029Z" fill="white"/>
<path fill-rule="evenodd" clip-rule="evenodd" d="M29.0625 48.6054V37.4454C20.5553 36.4204 14.3182 28.947 14.8316 20.3937C15.345 11.8404 22.4312 5.16667 31 5.16667C39.5687 5.16667 46.655 11.8404 47.1684 20.3937C47.6818 28.947 41.4447 36.4204 32.9375 37.4454V48.6054C32.9375 49.6754 32.07 50.5429 31 50.5429C29.9299 50.5429 29.0625 49.6754 29.0625 48.6054ZM42.4292 16.6396C40.5113 12.023 35.9991 9.01826 31 9.02871C24.2003 9.04292 18.6917 14.5516 18.6775 21.3512C18.667 26.3503 21.6718 30.8625 26.2884 32.7804C30.9049 34.6983 36.2224 33.6435 39.7574 30.1086C43.2923 26.5737 44.3471 21.2562 42.4292 16.6396Z" fill="white"/>
<path d="M24.7741 24.2187C25.8442 24.2187 26.7116 23.3513 26.7116 22.2812C26.7116 19.3136 29.1174 16.9079 32.085 16.9079C33.155 16.9079 34.0225 16.0404 34.0225 14.9704C34.0225 13.9003 33.155 13.0329 32.085 13.0329C29.6253 13.0397 27.2691 14.0234 25.5347 15.7675C23.8003 17.5116 22.8298 19.8732 22.8366 22.3329C22.8434 22.8399 23.0514 23.3234 23.4148 23.6771C23.7781 24.0308 24.2671 24.2256 24.7741 24.2187Z" fill="white"/>
</svg>
