<svg width="75" height="75" viewBox="0 0 75 75" fill="none" xmlns="http://www.w3.org/2000/svg">
<path fill-rule="evenodd" clip-rule="evenodd" d="M45.2925 5.97416C40.6211 7.97553 33.8792 7.97552 29.2078 5.97415C25.4124 4.34806 21.167 4.19727 17.2497 5.90119C8.98311 9.49698 5.27537 20.0051 8.87333 29.4842C8.87413 29.4863 8.8741 29.4887 8.87322 29.4907V29.4907L9.99602 31.9322C13.7915 40.1851 16.6523 48.8365 18.5253 57.7251L20.307 66.1806C20.9236 68.6114 23.1025 70.3125 25.5993 70.3125C28.2808 70.3125 30.5657 68.3566 30.9914 65.6967L33.5032 50.0027C33.7991 48.1544 35.3868 46.7952 37.2502 46.7952C39.1137 46.7952 40.7014 48.1544 40.9973 50.0028L43.509 65.6967C43.9347 68.3566 46.2196 70.3125 48.9012 70.3125C51.398 70.3125 53.5768 68.6114 54.1934 66.1806L55.9751 57.7251C57.8481 48.8365 60.709 40.1851 64.5044 31.9322L65.6272 29.4907V29.4907C65.6263 29.4887 65.6263 29.4863 65.6271 29.4842C69.2251 20.005 65.5173 9.49698 57.2507 5.90119C53.3334 4.19725 49.088 4.34805 45.2925 5.97416Z" fill="url(#paint0_linear_6_176)"/>
<g filter="url(#filter0_f_6_176)">
<path d="M18.9246 12.2834L18.5405 10.4508C18.4091 9.82395 17.8563 9.375 17.2158 9.375C16.5574 9.375 15.9944 9.84888 15.8822 10.4977L15.6146 12.044C15.1207 14.8988 12.9191 17.1543 10.0771 17.7172L7.58456 18.2108C6.99054 18.3285 6.5625 18.8496 6.5625 19.4552C6.5625 20.0797 7.0171 20.6113 7.63408 20.7083L9.80079 21.0488C12.782 21.5173 15.1273 23.8436 15.6201 26.8209L15.8905 28.4549C15.9978 29.1029 16.5582 29.5781 17.215 29.5781C17.8547 29.5781 18.4055 29.1268 18.5312 28.4995L18.9142 26.5891C19.4877 23.7285 21.7752 21.5236 24.6549 21.0557L26.7576 20.714C27.3752 20.6136 27.8289 20.0802 27.8289 19.4544C27.8289 18.8484 27.4026 18.3259 26.8089 18.2043L24.3713 17.7051C21.6373 17.1452 19.497 15.0148 18.9246 12.2834Z" fill="url(#paint1_linear_6_176)"/>
</g>
<path d="M18.299 13.8715L17.7934 9.89404C17.7557 9.59736 17.5032 9.375 17.2042 9.375C16.8979 9.375 16.6419 9.60783 16.6129 9.91268L16.2371 13.8626C16.0159 16.1869 14.2028 18.0418 11.8841 18.3159L7.08097 18.8836C6.78528 18.9186 6.5625 19.1692 6.5625 19.467C6.5625 19.7728 6.79714 20.0275 7.10193 20.0524L11.6322 20.4238C14.0754 20.6241 16.021 22.5514 16.2444 24.9925L16.6149 29.0406C16.6427 29.3451 16.8981 29.5781 17.2039 29.5781C17.5027 29.5781 17.7547 29.3551 17.7909 29.0585L18.2888 24.9862C18.5891 22.53 20.5708 20.6211 23.0366 20.4129L27.2893 20.0538C27.5944 20.028 27.8289 19.7729 27.8289 19.4667C27.8289 19.1688 27.6066 18.9178 27.311 18.8818L22.7815 18.3304C20.4427 18.0456 18.5961 16.2088 18.299 13.8715Z" fill="url(#paint2_linear_6_176)"/>
<g filter="url(#filter1_f_6_176)">
<path d="M55.5931 39.8319L55.4426 39.1139C55.36 38.7198 55.0124 38.4375 54.6097 38.4375C54.1957 38.4375 53.8417 38.7355 53.7711 39.1434L53.6843 39.6453C53.3247 41.7237 51.7219 43.3658 49.6528 43.7755L48.5538 43.9932C48.1803 44.0672 47.9112 44.3948 47.9112 44.7756C47.9112 45.1683 48.197 45.5026 48.585 45.5635L49.4364 45.6973C51.6159 46.0399 53.3305 47.7406 53.6908 49.9172L53.7764 50.4344C53.8438 50.8418 54.1962 51.1406 54.6091 51.1406C55.0114 51.1406 55.3577 50.8568 55.4368 50.4624L55.6238 49.5294C56.0167 47.5694 57.584 46.0587 59.5571 45.7381L60.6092 45.5671C60.9976 45.504 61.2829 45.1686 61.2829 44.7752C61.2829 44.3941 61.0149 44.0656 60.6415 43.9891L59.5436 43.7643C57.5606 43.3582 56.0083 41.813 55.5931 39.8319Z" fill="url(#paint3_linear_6_176)"/>
</g>
<path d="M55.2907 41.2648L54.9728 38.7639C54.9491 38.5773 54.7904 38.4375 54.6024 38.4375C54.4098 38.4375 54.2488 38.5839 54.2306 38.7756L53.9943 41.2591C53.8552 42.7206 52.7152 43.8869 51.2573 44.0593L48.2372 44.4162C48.0513 44.4382 47.9112 44.5958 47.9112 44.783C47.9112 44.9753 48.0587 45.1354 48.2504 45.1512L51.0989 45.3847C52.635 45.5106 53.8584 46.7225 53.9989 48.2573L54.2318 50.8026C54.2493 50.9941 54.4099 51.1406 54.6022 51.1406C54.7901 51.1406 54.9485 51.0004 54.9713 50.8139L55.2843 48.2534C55.4732 46.709 56.7192 45.5087 58.2696 45.3778L60.9436 45.152C61.1354 45.1358 61.2829 44.9754 61.2829 44.7829C61.2829 44.5956 61.1431 44.4378 60.9572 44.4151L58.1092 44.0684C56.6386 43.8893 55.4776 42.7344 55.2907 41.2648Z" fill="url(#paint4_linear_6_176)"/>
<defs>
<filter id="filter0_f_6_176" x="2.5625" y="5.375" width="29.2664" height="28.2031" filterUnits="userSpaceOnUse" color-interpolation-filters="sRGB">
<feFlood flood-opacity="0" result="BackgroundImageFix"/>
<feBlend mode="normal" in="SourceGraphic" in2="BackgroundImageFix" result="shape"/>
<feGaussianBlur stdDeviation="2" result="effect1_foregroundBlur_6_176"/>
</filter>
<filter id="filter1_f_6_176" x="43.9112" y="34.4375" width="21.3717" height="20.7031" filterUnits="userSpaceOnUse" color-interpolation-filters="sRGB">
<feFlood flood-opacity="0" result="BackgroundImageFix"/>
<feBlend mode="normal" in="SourceGraphic" in2="BackgroundImageFix" result="shape"/>
<feGaussianBlur stdDeviation="2" result="effect1_foregroundBlur_6_176"/>
</filter>
<linearGradient id="paint0_linear_6_176" x1="15.3752" y1="4.6875" x2="51.2502" y2="67.6875" gradientUnits="userSpaceOnUse">
<stop stop-color="#F0F6F9"/>
<stop offset="1" stop-color="#CDDFF2"/>
</linearGradient>
<linearGradient id="paint1_linear_6_176" x1="17.1957" y1="9.375" x2="17.1957" y2="29.5781" gradientUnits="userSpaceOnUse">
<stop stop-color="white"/>
<stop offset="1" stop-color="white"/>
</linearGradient>
<linearGradient id="paint2_linear_6_176" x1="17.1957" y1="9.375" x2="17.1957" y2="29.5781" gradientUnits="userSpaceOnUse">
<stop stop-color="white"/>
<stop offset="1" stop-color="white"/>
</linearGradient>
<linearGradient id="paint3_linear_6_176" x1="54.597" y1="38.4375" x2="54.597" y2="51.1406" gradientUnits="userSpaceOnUse">
<stop stop-color="white"/>
<stop offset="1" stop-color="white"/>
</linearGradient>
<linearGradient id="paint4_linear_6_176" x1="54.597" y1="38.4375" x2="54.597" y2="51.1406" gradientUnits="userSpaceOnUse">
<stop stop-color="white"/>
<stop offset="1" stop-color="white"/>
</linearGradient>
</defs>
</svg>
