<svg width="29" height="31" viewBox="0 0 29 31" fill="none" xmlns="http://www.w3.org/2000/svg">
<path d="M7.1503 28.0626C7.1503 27.5576 7.1503 27.0527 7.1503 26.5478C7.15389 26.5271 7.15316 26.506 7.14816 26.4856C7.14316 26.4653 7.134 26.4462 7.12123 26.4294C7.10847 26.4127 7.09238 26.3988 7.07395 26.3885C7.05553 26.3782 7.03517 26.3718 7.01412 26.3696C5.74995 26.014 4.58313 25.3806 3.60062 24.5166C2.88475 23.8719 2.28872 23.1079 1.83963 22.2593C1.20665 21.0334 0.785391 19.7113 0.59332 18.3478C0.355343 16.6373 0.272694 14.9092 0.346365 13.1842C0.362521 12.38 0.404065 11.5849 0.496384 10.7806C0.643616 9.25235 1.03305 7.75655 1.65038 6.3482C2.41266 4.61658 3.79554 3.22564 5.5324 2.44355C6.71555 1.90756 7.96026 1.51627 9.23902 1.27832C10.493 1.04318 11.7627 0.898857 13.038 0.846499C14.1875 0.806258 15.3383 0.823034 16.4861 0.896764C18.1289 0.965408 19.7568 1.23477 21.3328 1.69871C22.5014 2.03217 23.613 2.53658 24.6309 3.19523C25.6228 3.86926 26.425 4.78212 26.962 5.84784C27.5934 7.09255 28.0225 8.42801 28.2337 9.80504C28.3709 10.6226 28.4611 11.4472 28.5037 12.2749C28.5638 13.3007 28.5568 14.3312 28.5176 15.3524C28.4784 16.3737 28.3907 17.3653 28.2637 18.366C28.1033 19.868 27.6369 21.3223 26.8928 22.6408C25.9242 24.3089 24.3727 25.5685 22.5307 26.1822C21.2712 26.6188 19.9707 26.9296 18.6487 27.1098C17.6816 27.2423 16.7123 27.3383 15.7383 27.3771C14.9928 27.4114 14.2473 27.4023 13.5019 27.3908C13.0795 27.3908 12.6594 27.3497 12.2394 27.3132C12.1982 27.3055 12.1555 27.31 12.1169 27.3263C12.0783 27.3426 12.0454 27.3698 12.0224 27.4046C11.1731 28.4144 10.2915 29.3969 9.40289 30.3747C9.24103 30.5531 9.05363 30.7071 8.84666 30.8317C8.7108 30.9199 8.55589 30.9753 8.39443 30.9933C8.23297 31.0114 8.06949 30.9916 7.91718 30.9355C7.76487 30.8795 7.62802 30.7888 7.51765 30.6707C7.40729 30.5527 7.32651 30.4106 7.28185 30.2559C7.1939 29.9811 7.15028 29.6943 7.1526 29.406C7.1503 28.9536 7.1503 28.5081 7.1503 28.0626ZM8.17735 29.9795L8.28582 29.879L10.213 27.761C10.9546 26.9461 11.6955 26.1304 12.4356 25.314C12.472 25.2642 12.521 25.2248 12.5778 25.2C12.6346 25.1751 12.697 25.1655 12.7587 25.1723C13.0103 25.1975 13.2618 25.2066 13.5157 25.2089C14.3927 25.2089 15.2698 25.2089 16.1468 25.1472C16.9431 25.0855 17.737 24.9896 18.5263 24.8662C19.3762 24.7197 20.2175 24.5283 21.0467 24.2927C22.893 23.8015 24.3217 22.7505 25.2195 21.0484C25.7495 20.0018 26.082 18.8683 26.2004 17.7035C26.3407 16.6056 26.4246 15.5014 26.4519 14.3951C26.4929 13.0054 26.397 11.6151 26.1658 10.2437C26.0054 9.25018 25.7169 8.28113 25.3072 7.36035C24.7856 6.21797 24.047 5.27208 22.9092 4.66433C21.1644 3.73215 19.2764 3.31633 17.3308 3.10384C16.7792 3.04444 16.2276 3.01245 15.6737 2.99189C14.5395 2.934 13.4029 2.94011 12.2694 3.01017C11.4542 3.07006 10.6434 3.1784 9.8414 3.3346C8.66191 3.54745 7.52088 3.93243 6.45559 4.47698C5.83801 4.7859 5.27771 5.1961 4.79846 5.69019C4.02175 6.54958 3.45201 7.57213 3.1321 8.68094C2.75259 9.9723 2.54542 11.3073 2.51587 12.6519C2.44161 13.9964 2.45857 15.3444 2.56664 16.6867C2.63388 17.4856 2.76899 18.2774 2.97054 19.0538C3.27041 20.2636 3.85215 21.3872 4.66922 22.3347C5.55133 23.3013 6.69143 24.0014 7.95809 24.3544C8.11734 24.4024 8.18889 24.4572 8.18889 24.6354C8.17504 25.2934 8.18889 25.9514 8.18889 26.6095L8.17735 29.9795Z" fill="#754A91"/>
<path d="M6.56303 9.57199C6.54688 9.07163 6.82153 8.70835 7.15388 8.38163C7.59221 7.96596 8.07514 7.59898 8.59406 7.28723C8.83068 7.14277 9.11204 7.08772 9.38638 7.13222C9.66073 7.17671 9.90963 7.31776 10.0873 7.52942C10.7152 8.18275 11.2771 8.89516 11.7652 9.65653C12.0069 9.99901 12.1894 10.3789 12.3053 10.7806C12.3516 10.9374 12.3546 11.1036 12.314 11.2619C12.2734 11.4202 12.1907 11.5649 12.0745 11.6808C11.8082 11.9396 11.5245 12.18 11.2252 12.4005C11.0743 12.5195 10.9622 12.6798 10.9027 12.8614C10.8432 13.0429 10.839 13.2379 10.8905 13.4218C11.0753 14.2856 11.4942 15.0833 12.1022 15.7294C12.841 16.6222 13.7928 17.3188 14.8718 17.756C15.1369 17.8909 15.4407 17.9321 15.7326 17.8725C15.8926 17.8293 16.0347 17.7374 16.1388 17.6098C16.3004 17.4064 16.4758 17.2099 16.6212 16.9929C16.8098 16.7221 17.0978 16.535 17.4237 16.4714C17.7496 16.4078 18.0878 16.4728 18.3661 16.6525C19.1484 17.1018 19.887 17.6219 20.5725 18.2061C20.734 18.3432 20.9025 18.4757 21.0641 18.6151C21.2552 18.7594 21.3933 18.9618 21.4571 19.1913C21.5209 19.4207 21.5069 19.6646 21.4172 19.8854C21.2746 20.2567 21.0668 20.6002 20.8033 20.8998C20.4758 21.3503 20.0588 21.7298 19.5777 22.0148C19.3478 22.1485 19.0894 22.227 18.8233 22.2441C18.5572 22.2611 18.2907 22.2162 18.0452 22.113C16.1779 21.3688 14.4331 20.3531 12.8684 19.0994C11.338 17.8522 10.0006 16.3897 8.89871 14.7584C7.97157 13.408 7.23397 11.9392 6.70613 10.3922C6.64992 10.2051 6.6037 10.0152 6.56765 9.82332C6.55739 9.73992 6.55584 9.6557 6.56303 9.57199V9.57199Z" fill="#754A91"/>
<path d="M14.531 7.14136C16.0933 7.16995 17.596 7.74044 18.7769 8.75337C19.9579 9.7663 20.7423 11.1574 20.9934 12.6842C21.0945 13.2393 21.1485 13.8018 21.1549 14.3658C21.1549 14.4983 21.1203 14.5942 20.9772 14.608C20.8341 14.6217 20.7972 14.5006 20.7972 14.3795C20.8186 13.2386 20.5821 12.1075 20.1048 11.0689C19.7029 10.2154 19.1075 9.46529 18.3649 8.87683C17.6224 8.28836 16.7527 7.87742 15.8235 7.67599C15.3322 7.5634 14.8299 7.50516 14.3256 7.50235C14.2765 7.50319 14.2275 7.49703 14.1802 7.48407C14.1399 7.47282 14.1056 7.44653 14.0845 7.41072C14.0634 7.37492 14.0572 7.33241 14.0671 7.29215C14.0674 7.27305 14.0716 7.2542 14.0793 7.2367C14.087 7.21919 14.0982 7.20339 14.1122 7.19021C14.1261 7.17702 14.1426 7.16672 14.1606 7.1599C14.1786 7.15308 14.1979 7.14989 14.2171 7.1505C14.321 7.13679 14.4272 7.14136 14.531 7.14136Z" fill="#754A91"/>
<path d="M18.9874 13.3371C18.9796 12.7024 18.8217 12.0783 18.5263 11.5149C18.2309 10.9514 17.8062 10.4644 17.2864 10.0928C16.6796 9.67084 15.9743 9.40899 15.2369 9.33194C15.1123 9.31594 14.9876 9.30909 14.8607 9.29538C14.7337 9.28167 14.6576 9.22912 14.6691 9.10118C14.6807 8.97323 14.7614 8.92753 14.8999 8.93667C16.9448 9.06005 18.685 10.2047 19.2205 12.3364C19.3184 12.7474 19.3672 13.1684 19.3659 13.5907C19.3659 13.6296 19.3659 13.6684 19.3659 13.705C19.3659 13.8192 19.292 13.8946 19.1789 13.8923C19.1538 13.8915 19.1292 13.8856 19.1065 13.875C19.0838 13.8644 19.0635 13.8494 19.0469 13.8308C19.0302 13.8122 19.0176 13.7904 19.0097 13.7668C19.0019 13.7432 18.999 13.7183 19.0012 13.6935C18.9827 13.5862 18.9874 13.4765 18.9874 13.3371Z" fill="#754A91"/>
<path d="M15.4021 10.7921C16.5238 10.8675 17.3062 11.4113 17.5208 12.5925C17.5468 12.7438 17.5653 12.8963 17.5762 13.0495C17.5762 13.1728 17.5485 13.2779 17.4123 13.2779C17.2762 13.2779 17.23 13.1865 17.2254 13.0495C17.2241 12.5967 17.0832 12.1551 16.8215 11.7837C16.5465 11.4474 16.1516 11.2282 15.7183 11.1714C15.6214 11.1534 15.5235 11.1412 15.4252 11.1348C15.2636 11.1348 15.1736 11.0549 15.1944 10.9315C15.2151 10.8081 15.3121 10.7853 15.4021 10.7921Z" fill="#754A91"/>
</svg>
