<svg width="26" height="26" viewBox="0 0 29 29" fill="none" xmlns="http://www.w3.org/2000/svg">
<path d="M0 28.2789L2.02894 20.7415C0.392652 17.8053 -0.127215 14.379 0.564741 11.0913C1.2567 7.80365 3.11406 4.87514 5.796 2.84318C8.47795 0.811227 11.8046 -0.187884 15.1654 0.0291904C18.5263 0.246264 21.696 1.66496 24.0928 4.02495C26.4896 6.38494 27.9528 9.52792 28.2139 12.8771C28.475 16.2264 27.5165 19.5572 25.5142 22.2584C23.5119 24.9596 20.6003 26.8499 17.3134 27.5826C14.0266 28.3153 10.5851 27.8411 7.62052 26.2471L0 28.2789ZM7.98797 23.4266L8.45926 23.7054C10.6066 24.975 13.1146 25.5003 15.5926 25.1996C18.0705 24.8989 20.3791 23.7891 22.1586 22.043C23.9381 20.297 25.0886 18.0128 25.4308 15.5465C25.7729 13.0801 25.2875 10.5701 24.0502 8.4077C22.8129 6.24525 20.8932 4.55179 18.5902 3.59123C16.2873 2.63067 13.7305 2.45696 11.3182 3.09717C8.90592 3.73738 6.77373 5.15555 5.25388 7.13067C3.73403 9.1058 2.9119 11.5269 2.91561 14.0168C2.91359 16.0813 3.486 18.1058 4.56912 19.865L4.86467 20.3511L3.73038 24.558L7.98797 23.4266Z" fill="white"/>
<path fill-rule="evenodd" clip-rule="evenodd" d="M19.4246 15.9524C19.1483 15.7301 18.8248 15.5737 18.4788 15.495C18.1327 15.4163 17.7732 15.4174 17.4276 15.4983C16.9084 15.7134 16.5729 16.5261 16.2374 16.9324C16.1667 17.0299 16.0627 17.0982 15.9451 17.1246C15.8274 17.151 15.7041 17.1337 15.5984 17.0759C13.6975 16.3332 12.1042 14.9714 11.0772 13.2115C10.9896 13.1017 10.9481 12.9623 10.9615 12.8226C10.975 12.6829 11.0422 12.5538 11.1491 12.4626C11.5233 12.0931 11.798 11.6355 11.9479 11.132C11.9812 10.5767 11.8536 10.0235 11.5804 9.53846C11.3692 8.85847 10.9673 8.25298 10.4222 7.79355C10.141 7.66741 9.82923 7.62511 9.52449 7.67177C9.21976 7.71842 8.93506 7.85203 8.70476 8.05648C8.30493 8.40056 7.98758 8.82971 7.77607 9.31233C7.56455 9.79495 7.46427 10.3188 7.4826 10.8452C7.48383 11.1408 7.52139 11.4351 7.59443 11.7216C7.77991 12.4099 8.06516 13.0676 8.44115 13.6737C8.71242 14.138 9.0084 14.5875 9.32782 15.0202C10.3659 16.4416 11.6708 17.6485 13.17 18.5738C13.9224 19.044 14.7265 19.4263 15.5664 19.7132C16.439 20.1077 17.4023 20.2591 18.3542 20.1514C18.8966 20.0695 19.4104 19.8559 19.8506 19.5294C20.2908 19.2029 20.6437 18.7735 20.8784 18.279C21.0163 17.9802 21.0582 17.6463 20.9982 17.3229C20.8545 16.6615 19.9678 16.2711 19.4246 15.9524Z" fill="white"/>
</svg>
